<?xml version="1.0" encoding="UTF-8"?><svg id="Layer_2" xmlns="http://www.w3.org/2000/svg" viewBox="0 0 1528.3 995"><defs><style>.cls-1{fill:#46494c;}.cls-2{fill:#fff;}.cls-3{fill:#dcdcdd;}.cls-4{fill:#c5c3c6;}.cls-5{fill:#4c5c68;}</style></defs><g id="Layer_1-2"><g><polygon class="cls-3" points="190.15 199.15 381.3 99.83 381.3 99.5 190.15 0 189.65 .26 189.65 198.89 190.15 199.15"/><polygon class="cls-2" points="190.65 .26 0 99.5 0 99.83 190.65 198.89 190.65 .26"/><polygon class="cls-4" points="190.65 199.41 191.15 199.15 190.65 198.89 190.65 199.41"/><polygon class="cls-3" points="190.65 198.89 0 99.83 0 298.47 190.65 199.41 190.65 198.89"/><polygon class="cls-5" points="191 199.15 382.15 298.47 382.15 99.83 191 199.15"/><polygon points="190.65 199.41 190.65 397.65 190.65 199.41 0 298.47 0 298.5 191.15 398 382.3 298.5 382.3 298.47 191.15 199.15 190.65 199.41"/><polygon class="cls-3" points="191.15 398.15 382.3 298.83 382.3 298.5 191.15 199 190.65 199.26 190.65 397.89 191.15 398.15"/><polygon class="cls-1" points="190.65 199.26 0 298.5 0 298.83 190.65 397.89 190.65 199.26"/><polygon class="cls-4" points="190.65 398.41 191.15 398.15 190.65 397.89 190.65 398.41"/><polygon class="cls-1" points="190.65 397.89 0 298.83 0 497.47 190.65 398.41 190.65 397.89"/><polygon class="cls-4" points="191.15 398.15 382.3 497.47 382.3 298.83 191.15 398.15"/><polygon class="cls-3" points="190.65 398.41 190.65 596.65 190.65 398.41 0 497.47 0 497.5 191.15 597 382.3 497.5 382.3 497.47 191.15 398.15 190.65 398.41"/><polygon class="cls-5" points="191.15 597.15 382.3 497.83 382.3 497.5 191.15 398 190.65 398.26 190.65 596.89 191.15 597.15"/><polygon class="cls-2" points="190.65 398.26 0 497.5 0 497.83 190.65 596.89 190.65 398.26"/><polygon class="cls-3" points="190.65 597.41 191.15 597.15 190.65 596.89 190.65 597.41"/><polygon class="cls-3" points="190.65 596.89 0 497.83 0 696.47 190.65 597.41 190.65 596.89"/><polygon class="cls-5" points="191.15 597.15 382.3 696.47 382.3 497.83 191.15 597.15"/><polygon class="cls-3" points="190.65 597.41 190.65 795.65 190.65 597.41 0 696.47 0 696.5 191.15 796 382.3 696.5 382.3 696.47 191.15 597.15 190.65 597.41"/><polygon class="cls-3" points="191.15 796.15 382.3 696.83 382.3 696.5 191.15 597 190.65 597.26 190.65 795.89 191.15 796.15"/><polygon class="cls-5" points="190.65 597.26 0 696.5 0 696.83 190.65 795.89 190.65 597.26"/><polygon class="cls-1" points="190.65 796.41 191.15 796.15 190.65 795.89 190.65 796.41"/><polygon points="190.65 795.89 0 696.83 0 895.47 190.65 796.41 190.65 795.89"/><polygon class="cls-1" points="191.15 796.15 382.3 895.47 382.3 696.83 191.15 796.15"/><polygon class="cls-1" points="190.65 796.41 190.65 994.65 190.65 796.41 0 895.47 0 895.5 191.15 995 382.3 895.5 382.3 895.47 191.15 796.15 190.65 796.41"/><polygon class="cls-3" points="573.15 199.15 764.3 99.83 764.3 99.5 573.15 0 572.65 .26 572.65 198.89 573.15 199.15"/><polygon class="cls-3" points="572.65 .26 382 99.5 382 99.83 572.65 198.89 572.65 .26"/><polygon class="cls-3" points="572.65 199.41 573.15 199.15 572.65 198.89 572.65 199.41"/><polygon class="cls-3" points="572.65 198.89 382 99.83 382 298.47 572.65 199.41 572.65 198.89"/><polygon class="cls-1" points="573.15 199.15 764.3 298.47 764.3 99.83 573.15 199.15"/><polygon class="cls-5" points="572.65 199.41 572.65 397.65 572.65 199.41 382 298.47 382 298.5 573.15 398 764.3 298.5 764.3 298.47 573.15 199.15 572.65 199.41"/><polygon class="cls-3" points="573.15 398.15 764.3 298.83 764.3 298.5 573.15 199 572.65 199.26 572.65 397.89 573.15 398.15"/><polygon points="572.65 199.26 382 298.5 382 298.83 572.65 397.89 572.65 199.26"/><polygon class="cls-4" points="572.65 398.41 573.15 398.15 572.65 397.89 572.65 398.41"/><polygon class="cls-3" points="572.65 397.89 382 298.83 382 497.47 572.65 398.41 572.65 397.89"/><polygon class="cls-4" points="573.15 398.15 764.3 497.47 764.3 298.83 573.15 398.15"/><polygon class="cls-4" points="572.65 398.41 572.65 596.65 572.65 398.41 382 497.47 382 497.5 573.15 597 764.3 497.5 764.3 497.47 573.15 398.15 572.65 398.41"/><polygon class="cls-4" points="573.15 597.15 764.3 497.83 764.3 497.5 573.15 398 572.65 398.26 572.65 596.89 573.15 597.15"/><polygon class="cls-4" points="572.65 398.26 382 497.5 382 497.83 572.65 596.89 572.65 398.26"/><polygon class="cls-5" points="572.65 597.41 573.15 597.15 572.65 596.89 572.65 597.41"/><polygon class="cls-5" points="572.65 596.89 382 497.83 382 696.47 572.65 597.41 572.65 596.89"/><polygon points="573.15 597.15 764.3 696.47 764.3 497.83 573.15 597.15"/><polygon class="cls-4" points="572.65 597.41 572.65 795.65 572.65 597.41 382 696.47 382 696.5 573.15 796 764.3 696.5 764.3 696.47 573.15 597.15 572.65 597.41"/><polygon class="cls-3" points="574.15 796.15 765.3 696.83 765.3 696.5 574.15 597 573.65 597.26 573.65 795.89 574.15 796.15"/><polygon class="cls-2" points="572.65 597.26 382 696.5 382 696.83 572.65 795.89 572.65 597.26"/><polygon class="cls-5" points="572.65 796.41 573.15 796.15 572.65 795.89 572.65 796.41"/><polygon class="cls-2" points="572.65 795.89 382 696.83 382 895.47 572.65 796.41 572.65 795.89"/><polygon class="cls-2" points="573.15 796.15 764.3 895.47 764.3 696.83 573.15 796.15"/><polygon class="cls-4" points="571.65 796.41 571.65 994.65 571.65 796.41 381 895.47 381 895.5 572.15 995 763.3 895.5 763.3 895.47 572.15 796.15 571.65 796.41"/><polygon class="cls-4" points="955.15 199.15 1146.3 99.83 1146.3 99.5 955.15 0 954.65 .26 954.65 198.89 955.15 199.15"/><polygon class="cls-4" points="954.65 .26 764 99.5 764 99.83 954.65 198.89 954.65 .26"/><polygon points="954.65 199.41 955.15 199.15 954.65 198.89 954.65 199.41"/><polygon class="cls-1" points="954.65 198.89 764 99.83 764 298.47 954.65 199.41 954.65 198.89"/><polygon points="955.15 199.15 1146.3 298.47 1146.3 99.83 955.15 199.15"/><polygon points="954.65 199.41 954.65 397.65 954.65 199.41 764 298.47 764 298.5 955.15 398 1146.3 298.5 1146.3 298.47 955.15 199.15 954.65 199.41"/><polygon class="cls-4" points="955.15 398.15 1146.3 298.83 1146.3 298.5 955.15 199 954.65 199.26 954.65 397.89 955.15 398.15"/><polygon class="cls-4" points="954.65 199.26 764 298.5 764 298.83 954.65 397.89 954.65 199.26"/><polygon class="cls-5" points="954.65 398.41 955.15 398.15 954.65 397.89 954.65 398.41"/><polygon class="cls-1" points="954.65 397.89 764 298.83 764 497.47 954.65 398.41 954.65 397.89"/><polygon class="cls-5" points="955.15 398.15 1146.3 497.47 1146.3 298.83 955.15 398.15"/><polygon class="cls-1" points="954.65 398.41 954.65 596.65 954.65 398.41 764 497.47 764 497.5 955.15 597 1146.3 497.5 1146.3 497.47 955.15 398.15 954.65 398.41"/><polygon class="cls-3" points="955.15 597.15 1146.3 497.83 1146.3 497.5 955.15 398 954.65 398.26 954.65 596.89 955.15 597.15"/><polygon class="cls-1" points="954.65 398.26 764 497.5 764 497.83 954.65 596.89 954.65 398.26"/><polygon class="cls-3" points="954.65 597.41 955.15 597.15 954.65 596.89 954.65 597.41"/><polygon class="cls-4" points="954.65 596.89 764 497.83 764 696.47 954.65 597.41 954.65 596.89"/><polygon class="cls-1" points="955.15 597.15 1146.3 696.47 1146.3 497.83 955.15 597.15"/><polygon points="954.65 597.41 954.65 795.65 954.65 597.41 764 696.47 764 696.5 955.15 796 1146.3 696.5 1146.3 696.47 955.15 597.15 954.65 597.41"/><polygon class="cls-1" points="955.15 796.15 1146.3 696.83 1146.3 696.5 955.15 597 954.65 597.26 954.65 795.89 955.15 796.15"/><polygon class="cls-1" points="954.65 597.26 764 696.5 764 696.83 954.65 795.89 954.65 597.26"/><polygon points="954.65 796.41 955.15 796.15 954.65 795.89 954.65 796.41"/><polygon class="cls-4" points="954.65 795.89 764 696.83 764 895.47 954.65 796.41 954.65 795.89"/><polygon class="cls-3" points="955.15 796.15 1146.3 895.47 1146.3 696.83 955.15 796.15"/><polygon class="cls-4" points="955.65 796.41 955.65 994.65 955.65 796.41 765 895.47 765 895.5 956.15 995 1147.3 895.5 1147.3 895.47 956.15 796.15 955.65 796.41"/><polygon class="cls-1" points="1337.15 199.15 1528.3 99.83 1528.3 99.5 1337.15 0 1336.65 .26 1336.65 198.89 1337.15 199.15"/><polygon class="cls-1" points="1336.65 .26 1146 99.5 1146 99.83 1336.65 198.89 1336.65 .26"/><polygon points="1336.65 199.41 1337.15 199.15 1336.65 198.89 1336.65 199.41"/><polygon class="cls-4" points="1335.65 198.89 1145 99.83 1145 298.47 1335.65 199.41 1335.65 198.89"/><polygon class="cls-4" points="1337.15 199.15 1528.3 298.47 1528.3 99.83 1337.15 199.15"/><polygon class="cls-4" points="1336.65 199.41 1336.65 397.65 1336.65 199.41 1146 298.47 1146 298.5 1337.15 398 1528.3 298.5 1528.3 298.47 1337.15 199.15 1336.65 199.41"/><polygon class="cls-5" points="1337.15 398.15 1528.3 298.83 1528.3 298.5 1337.15 199 1336.65 199.26 1336.65 397.89 1337.15 398.15"/><polygon class="cls-4" points="1336.65 199.26 1146 298.5 1146 298.83 1336.65 397.89 1336.65 199.26"/><polygon class="cls-3" points="1336.65 398.41 1337.15 398.15 1336.65 397.89 1336.65 398.41"/><polygon class="cls-4" points="1336.65 397.89 1146 298.83 1146 497.47 1336.65 398.41 1336.65 397.89"/><polygon class="cls-4" points="1337.15 398.15 1528.3 497.47 1528.3 298.83 1337.15 398.15"/><polygon class="cls-3" points="1336.65 398.41 1336.65 596.65 1336.65 398.41 1146 497.47 1146 497.5 1337.15 597 1528.3 497.5 1528.3 497.47 1337.15 398.15 1336.65 398.41"/><polygon class="cls-1" points="1337.15 597.15 1528.3 497.83 1528.3 497.5 1337.15 398 1336.65 398.26 1336.65 596.89 1337.15 597.15"/><polygon class="cls-3" points="1336.65 398.26 1146 497.5 1146 497.83 1336.65 596.89 1336.65 398.26"/><polygon class="cls-4" points="1336.65 597.41 1337.15 597.15 1336.65 596.89 1336.65 597.41"/><polygon class="cls-5" points="1336.65 596.89 1146 497.83 1146 696.47 1336.65 597.41 1336.65 596.89"/><polygon class="cls-1" points="1337.15 597.15 1528.3 696.47 1528.3 497.83 1337.15 597.15"/><polygon class="cls-3" points="1337.15 796.15 1528.3 696.83 1528.3 696.5 1337.15 597 1336.65 597.26 1336.65 795.89 1337.15 796.15"/><polygon points="1336.65 597.26 1146 696.5 1146 696.83 1336.65 795.89 1336.65 597.26"/><polygon class="cls-1" points="1336.65 796.41 1337.15 796.15 1336.65 795.89 1336.65 796.41"/><polygon class="cls-3" points="1336.65 795.89 1146 696.83 1146 895.47 1336.65 796.41 1336.65 795.89"/><polygon class="cls-4" points="1337.15 796.15 1528.3 895.47 1528.3 696.83 1337.15 796.15"/><polygon class="cls-5" points="1336.65 796.41 1336.65 994.65 1336.65 796.41 1146 895.47 1146 895.5 1337.15 995 1528.3 895.5 1528.3 895.47 1337.15 796.15 1336.65 796.41"/><polygon class="cls-4" points="1336.65 597.41 1336.65 795.65 1336.65 597.41 1146 696.47 1146 696.5 1337.15 796 1528.3 696.5 1528.3 696.47 1337.15 597.15 1336.65 597.41"/></g></g></svg>